<svg width="27" height="27" viewBox="0 0 27 27" fill="none" xmlns="http://www.w3.org/2000/svg">
<path d="M13.4999 2.25C11.2748 2.25 9.09977 2.9098 7.24972 4.14597C5.39966 5.38213 3.95772 7.13914 3.10624 9.19481C2.25475 11.2505 2.03196 13.5125 2.46605 15.6948C2.90013 17.8771 3.97159 19.8816 5.54493 21.455C7.11827 23.0283 9.12283 24.0998 11.3051 24.5338C13.4874 24.9679 15.7494 24.7451 17.8051 23.8936C19.8607 23.0422 21.6177 21.6002 22.8539 19.7502C24.0901 17.9001 24.7499 15.725 24.7499 13.5C24.7451 10.5178 23.5583 7.65906 21.4496 5.55031C19.3408 3.44155 16.4821 2.25476 13.4999 2.25ZM17.6736 17.6738C17.4604 17.8829 17.1736 18.0001 16.8749 18.0001C16.5762 18.0001 16.2894 17.8829 16.0761 17.6738L12.7011 14.2988C12.4939 14.0842 12.3771 13.7983 12.3749 13.5V7.875C12.3749 7.57663 12.4934 7.29048 12.7044 7.07951C12.9154 6.86853 13.2015 6.75 13.4999 6.75C13.7983 6.75 14.0844 6.86853 14.2954 7.07951C14.5064 7.29048 14.6249 7.57663 14.6249 7.875V13.0388L17.6736 16.0762C17.8844 16.2887 18.0027 16.5758 18.0027 16.875C18.0027 17.1742 17.8844 17.4613 17.6736 17.6738Z" fill="white"/>
</svg>
