<svg width="27" height="27" viewBox="0 0 27 27" fill="none" xmlns="http://www.w3.org/2000/svg">
<path d="M22.3875 14.244C22.2071 14.0387 22.1077 13.7748 22.1077 13.5015C22.1077 13.2283 22.2071 12.9643 22.3875 12.759L23.8275 11.139C23.9862 10.962 24.0847 10.7393 24.109 10.5029C24.1332 10.2664 24.082 10.0283 23.9625 9.82278L21.7125 5.93028C21.5943 5.72499 21.4142 5.56227 21.1981 5.4653C20.9819 5.36834 20.7407 5.34208 20.5088 5.39028L18.3938 5.81778C18.1246 5.87339 17.8445 5.82857 17.6061 5.69178C17.3678 5.55499 17.1878 5.3357 17.1 5.07528L16.4138 3.01653C16.3383 2.79308 16.1945 2.599 16.0027 2.46173C15.8109 2.32445 15.5809 2.25092 15.345 2.25153H10.845C10.5997 2.23873 10.3569 2.30657 10.1538 2.44471C9.95062 2.58284 9.79828 2.78368 9.72001 3.01653L9.09001 5.07528C9.00226 5.3357 8.82222 5.55499 8.58388 5.69178C8.34554 5.82857 8.06537 5.87339 7.79625 5.81778L5.62501 5.39028C5.40513 5.35921 5.18097 5.39391 4.98077 5.49C4.78057 5.58609 4.61329 5.73929 4.50001 5.93028L2.25001 9.82278C2.12756 10.026 2.07251 10.2628 2.09271 10.4992C2.11292 10.7356 2.20735 10.9595 2.36251 11.139L3.79126 12.759C3.97161 12.9643 4.07108 13.2283 4.07108 13.5015C4.07108 13.7748 3.97161 14.0387 3.79126 14.244L2.36251 15.864C2.20735 16.0435 2.11292 16.2675 2.09271 16.5039C2.07251 16.7403 2.12756 16.977 2.25001 17.1803L4.50001 21.0728C4.61824 21.2781 4.79826 21.4408 5.01441 21.5378C5.23056 21.6347 5.47181 21.661 5.70376 21.6128L7.81875 21.1853C8.08787 21.1297 8.36804 21.1745 8.60638 21.3113C8.84472 21.4481 9.02476 21.6674 9.11251 21.9278L9.79876 23.9865C9.87703 24.2194 10.0294 24.4202 10.2325 24.5584C10.4357 24.6965 10.6784 24.7643 10.9238 24.7515H15.4238C15.6596 24.7521 15.8897 24.6786 16.0815 24.5413C16.2732 24.4041 16.417 24.21 16.4925 23.9865L17.1788 21.9278C17.2665 21.6674 17.4465 21.4481 17.6849 21.3113C17.9232 21.1745 18.2034 21.1297 18.4725 21.1853L20.5875 21.6128C20.8195 21.661 21.0607 21.6347 21.2768 21.5378C21.493 21.4408 21.673 21.2781 21.7913 21.0728L24.0413 17.1803C24.1607 16.9748 24.212 16.7367 24.1877 16.5002C24.1635 16.2637 24.0649 16.041 23.9063 15.864L22.3875 14.244ZM20.7113 15.7515L21.6113 16.764L20.1713 19.2615L18.8438 18.9915C18.0335 18.8259 17.1906 18.9635 16.4752 19.3783C15.7597 19.7931 15.2214 20.4561 14.9625 21.2415L14.535 22.5015H11.655L11.25 21.219C10.9911 20.4336 10.4528 19.7706 9.73734 19.3558C9.02186 18.941 8.179 18.8034 7.36876 18.969L6.04126 19.239L4.57876 16.7528L5.47876 15.7403C6.0322 15.1215 6.33818 14.3205 6.33818 13.4903C6.33818 12.6601 6.0322 11.8591 5.47876 11.2403L4.57876 10.2278L6.01876 7.75278L7.34626 8.02278C8.1565 8.1884 8.99936 8.05077 9.71484 7.636C10.4303 7.22124 10.9686 6.55821 11.2275 5.77278L11.655 4.50153H14.535L14.9625 5.78403C15.2214 6.56946 15.7597 7.23249 16.4752 7.64725C17.1906 8.06202 18.0335 8.19965 18.8438 8.03403L20.1713 7.76403L21.6113 10.2615L20.7113 11.274C20.164 11.8914 19.8618 12.6878 19.8618 13.5128C19.8618 14.3378 20.164 15.1342 20.7113 15.7515ZM13.095 9.00153C12.205 9.00153 11.335 9.26545 10.5949 9.75992C9.85492 10.2544 9.27814 10.9572 8.93755 11.7795C8.59695 12.6017 8.50784 13.5065 8.68147 14.3794C8.8551 15.2524 9.28369 16.0542 9.91302 16.6835C10.5424 17.3128 11.3442 17.7414 12.2171 17.9151C13.09 18.0887 13.9948 17.9996 14.8171 17.659C15.6393 17.3184 16.3422 16.7416 16.8366 16.0016C17.3311 15.2616 17.595 14.3915 17.595 13.5015C17.595 12.3081 17.1209 11.1635 16.277 10.3195C15.4331 9.47564 14.2885 9.00153 13.095 9.00153ZM13.095 15.7515C12.65 15.7515 12.215 15.6196 11.845 15.3723C11.475 15.1251 11.1866 14.7737 11.0163 14.3626C10.846 13.9514 10.8014 13.499 10.8882 13.0626C10.9751 12.6261 11.1893 12.2252 11.504 11.9105C11.8187 11.5959 12.2196 11.3816 12.6561 11.2948C13.0925 11.2079 13.5449 11.2525 13.956 11.4228C14.3672 11.5931 14.7186 11.8815 14.9658 12.2515C15.213 12.6215 15.345 13.0565 15.345 13.5015C15.345 14.0983 15.108 14.6706 14.686 15.0925C14.264 15.5145 13.6917 15.7515 13.095 15.7515Z" fill="black"/>
</svg>
