<svg width="27" height="27" viewBox="0 0 27 27" fill="none" xmlns="http://www.w3.org/2000/svg">
<path d="M1 20C1 23.3067 3.69333 26 7 26H19C22.3067 26 25 23.3067 25 20V9.33333H1V20ZM9.66667 14C9.66667 13.7667 9.79333 13.5467 9.99333 13.4267C10.2 13.3067 10.4533 13.3 10.66 13.42L16.66 16.7533C16.8667 16.8667 17 17.0933 17 17.3333C17 17.5733 16.8667 17.8 16.66 17.9133L10.66 21.2467C10.5533 21.3067 10.4467 21.3333 10.3333 21.3333C10.2133 21.3333 10.1 21.3 9.99333 21.24C9.79333 21.12 9.66667 20.9 9.66667 20.6667V14ZM25 8C25 4.69333 22.3067 2 19 2H15.3533L19.3533 8H25ZM17.76 8L13.7533 2H7C6.89333 2 6.79333 2 6.69333 2.00667L10.6867 8H17.76ZM5.26667 2.26C2.8 3 1 5.29333 1 8H9.09333L5.26667 2.26Z" fill="white"/>
</svg>
