<svg width="27" height="27" viewBox="0 0 27 27" fill="none" xmlns="http://www.w3.org/2000/svg">
<g clip-path="url(#clip0_2872_23679)">
<path d="M14.3043 5.69891C13.9256 5.3626 13.3552 5.36261 12.9764 5.69892L3.153 14.4215C3.1245 14.4468 3.1076 14.4832 3.09896 14.5203V14.5203C3.09293 14.5466 3.08972 14.5656 3.08972 14.5792V24.0489C3.08972 24.3909 3.20578 24.6872 3.43784 24.9367C3.66983 25.1864 3.94455 25.312 4.26206 25.312H10.2956C10.8479 25.312 11.2956 24.8643 11.2956 24.312V18.736C11.2956 18.1837 11.7433 17.736 12.2956 17.736H14.9853C15.5375 17.736 15.9853 18.1837 15.9853 18.736V24.3123C15.9853 24.8645 16.433 25.3123 16.9853 25.3123H23.0187C23.3362 25.3123 23.6113 25.1869 23.8429 24.9367C24.075 24.6874 24.1914 24.3909 24.1914 24.0489V14.5792V14.5792C24.1914 14.4999 24.1423 14.4341 24.0831 14.3814L14.3043 5.69891Z" fill="white"/>
<path d="M28.2026 12.3308L24.1913 8.74011V0.69067C24.1913 0.506653 24.1364 0.35532 24.0262 0.23688C23.9169 0.118578 23.7764 0.0594274 23.6051 0.0594274H20.0883C19.9173 0.0594274 19.7768 0.118578 19.6668 0.23688C19.557 0.35532 19.5022 0.506722 19.5022 0.69067V4.53776L15.0329 0.512941C14.6425 0.170957 14.1784 0 13.6411 0C13.1037 0 12.6397 0.170957 12.249 0.512941L-0.921459 12.3308C-1.04355 12.4358 -1.11046 12.5772 -1.12291 12.7548C-1.13529 12.9322 -1.09263 13.0872 -0.99479 13.2186L0.140851 14.6786C0.23869 14.7969 0.366747 14.8693 0.525535 14.8957C0.672134 14.909 0.818732 14.8629 0.965331 14.7577L13.6407 3.37375L26.3161 14.7576C26.414 14.8494 26.542 14.8952 26.7008 14.8952H26.7559C26.9144 14.8692 27.0422 14.7964 27.1406 14.6784L28.2763 13.2186C28.374 13.0869 28.4168 12.9322 28.4041 12.7545C28.3916 12.5774 28.3244 12.436 28.2026 12.3308Z" fill="white"/>
</g>
<defs>
<clipPath id="clip0_2872_23679">
<rect width="27" height="27" fill="white"/>
</clipPath>
</defs>
</svg>
