<svg width="25" height="24" viewBox="0 0 25 24" fill="none" xmlns="http://www.w3.org/2000/svg">
<rect width="25" height="24" rx="12" fill="#191A1F"/>
<path d="M8.4375 16.5625C8.33333 16.4583 8.26458 16.3375 8.23125 16.2C8.19792 16.0583 8.19792 15.9187 8.23125 15.7812C8.26458 15.6437 8.33125 15.525 8.43125 15.425L11.3625 12.4937L8.43125 9.56875C8.33125 9.46875 8.26458 9.35 8.23125 9.2125C8.19792 9.075 8.19792 8.9375 8.23125 8.8C8.26458 8.65833 8.33333 8.53542 8.4375 8.43125C8.5375 8.33125 8.65625 8.26458 8.79375 8.23125C8.93542 8.19375 9.075 8.19375 9.2125 8.23125C9.35417 8.26458 9.475 8.32917 9.575 8.425L12.5 11.3562L15.4312 8.43125C15.5312 8.33125 15.6479 8.26458 15.7812 8.23125C15.9187 8.19375 16.0562 8.19375 16.1937 8.23125C16.3354 8.26458 16.4562 8.33333 16.5562 8.4375C16.6646 8.5375 16.7354 8.65833 16.7687 8.8C16.8021 8.9375 16.8021 9.075 16.7687 9.2125C16.7354 9.35 16.6667 9.46875 16.5625 9.56875L13.6437 12.4937L16.5625 15.425C16.6667 15.525 16.7354 15.6437 16.7687 15.7812C16.8021 15.9187 16.8021 16.0583 16.7687 16.2C16.7354 16.3375 16.6646 16.4562 16.5562 16.5562C16.4562 16.6604 16.3354 16.7312 16.1937 16.7687C16.0562 16.8021 15.9187 16.8021 15.7812 16.7687C15.6479 16.7354 15.5312 16.6667 15.4312 16.5625L12.5 13.6375L9.575 16.5687C9.475 16.6646 9.35417 16.7312 9.2125 16.7687C9.075 16.8021 8.93542 16.8021 8.79375 16.7687C8.65625 16.7312 8.5375 16.6625 8.4375 16.5625Z" fill="white"/>
</svg>
