<svg width="27" height="27" viewBox="0 0 27 27" fill="none" xmlns="http://www.w3.org/2000/svg">
<path d="M13.9519 21.4034C13.2249 21.392 12.5241 21.1258 11.9673 20.6497L8.30096 17.3608C7.72403 16.8118 6.84181 16.7683 6.2155 17.2581L1.00194 21.1636V23.6987C0.964466 24.3788 1.47546 24.961 2.14317 24.9992C2.17755 25.0012 2.21205 25.0016 2.2465 25.0006H20.7127C21.4527 25.0006 22.1927 24.4524 22.1927 23.6987V17.0525L15.5664 20.958C15.0792 21.2563 14.5202 21.4105 13.9519 21.4034Z" fill="white"/>
<path d="M13.6828 14.757C14.5002 14.757 15.1628 14.0821 15.1628 13.2496C15.1628 12.4171 14.5002 11.7422 13.6828 11.7422C12.8654 11.7422 12.2028 12.4171 12.2028 13.2496C12.2028 14.0821 12.8654 14.757 13.6828 14.757Z" fill="white"/>
<path d="M25.6909 5.67773C25.5848 5.53049 25.4487 5.40835 25.292 5.31965C25.1352 5.23095 24.9615 5.17779 24.7827 5.16382L6.45098 3.00551C6.0936 2.975 5.73692 3.07189 5.44193 3.27961C5.18067 3.51071 5.00302 3.82434 4.93737 4.17037L4.63464 6.84259H20.7128C22.2456 6.878 23.4851 8.12535 23.5382 9.68609V21.7796C23.5382 21.711 23.8409 21.6425 23.9755 21.5055C24.1129 21.3956 24.2238 21.255 24.2996 21.0947C24.3754 20.9343 24.4141 20.7584 24.4128 20.5805L25.9936 6.67124C26.0109 6.49344 25.993 6.3139 25.941 6.14325C25.8891 5.97261 25.804 5.81431 25.6909 5.67773Z" fill="white"/>
<path d="M20.7129 8.21094H2.24664C1.50663 8.21094 1.00208 8.93035 1.00208 9.68406V19.4479L5.44203 16.1591C6.5691 15.3075 8.1283 15.3791 9.17566 16.3303L12.8756 19.6192C13.1478 19.8546 13.4852 19.9976 13.841 20.0283C14.1967 20.059 14.553 19.9758 14.8601 19.7905L22.1928 15.4396V9.68406C22.1419 8.87979 21.5035 8.24431 20.7129 8.21094ZM13.6829 16.1248C12.1225 16.1248 10.8574 14.8364 10.8574 13.247C10.8574 11.6577 12.1224 10.3692 13.6829 10.3692C15.2433 10.3692 16.5083 11.6576 16.5083 13.247C16.5083 14.8364 15.2434 16.1248 13.6829 16.1248Z" fill="white"/>
</svg>
